<svg width="100.000000" height="100.000000" viewBox="0 0 100 100" fill="none" xmlns="http://www.w3.org/2000/svg" xmlns:xlink="http://www.w3.org/1999/xlink">
	<desc>
			Created with Pixso.
	</desc>
	<defs>
		<clipPath id="clip2_8">
			<rect id="database" width="100.000000" height="100.000000" fill="white"/>
		</clipPath>
		<clipPath id="clip2_1">
			<rect id="尺寸1" width="100.000000" height="100.000000" fill="white"/>
		</clipPath>
	</defs>
	<g clip-path="url(#clip2_1)">
		<g clip-path="url(#clip2_8)">
			<path id="path" d="M50 42.8571C58.817 42.8571 67.0573 42.0573 74.721 40.4576C82.3847 38.8579 88.4301 36.4955 92.8571 33.3705L92.8571 42.8571C92.8571 45.4241 90.9412 47.8051 87.1094 50C83.2775 52.1949 78.0692 53.9342 71.4844 55.2176C64.8996 56.5011 57.7381 57.1429 50 57.1429C42.2619 57.1429 35.1004 56.5011 28.5156 55.2176C21.9308 53.9342 16.7225 52.1949 12.8906 50C9.05878 47.8051 7.14286 45.4241 7.14286 42.8571L7.14286 33.3705C11.5699 36.4955 17.6153 38.8579 25.279 40.4576C32.9427 42.0573 41.183 42.8571 50 42.8571ZM50 85.7143C58.817 85.7143 67.0573 84.9144 74.721 83.3147C82.3847 81.715 88.4301 79.3527 92.8571 76.2277L92.8571 85.7143C92.8571 88.2812 90.9412 90.6622 87.1094 92.8571C83.2775 95.0521 78.0692 96.7913 71.4844 98.0748C64.8996 99.3583 57.7381 100 50 100C42.2619 100 35.1004 99.3583 28.5156 98.0748C21.9308 96.7913 16.7225 95.0521 12.8906 92.8571C9.05878 90.6622 7.14286 88.2812 7.14286 85.7143L7.14286 76.2277C11.5699 79.3527 17.6153 81.715 25.279 83.3147C32.9427 84.9144 41.183 85.7143 50 85.7143ZM50 64.2857C58.817 64.2857 67.0573 63.4859 74.721 61.8862C82.3847 60.2865 88.4301 57.9241 92.8571 54.7991L92.8571 64.2857C92.8571 66.8527 90.9412 69.2336 87.1094 71.4286C83.2775 73.6235 78.0692 75.3627 71.4844 76.6462C64.8996 77.9297 57.7381 78.5714 50 78.5714C42.2619 78.5714 35.1004 77.9297 28.5156 76.6462C21.9308 75.3627 16.7225 73.6235 12.8906 71.4286C9.05878 69.2336 7.14286 66.8527 7.14286 64.2857L7.14286 54.7991C11.5699 57.9241 17.6153 60.2865 25.279 61.8862C32.9427 63.4859 41.183 64.2857 50 64.2857ZM50 0C57.7381 0 64.8996 0.641739 71.4844 1.92522C78.0692 3.20871 83.2775 4.94792 87.1094 7.14285C90.9412 9.3378 92.8571 11.7188 92.8571 14.2857L92.8571 21.4286C92.8571 23.9955 90.9412 26.3765 87.1094 28.5714C83.2775 30.7664 78.0692 32.5056 71.4844 33.7891C64.8996 35.0725 57.7381 35.7143 50 35.7143C42.2619 35.7143 35.1004 35.0726 28.5156 33.7891C21.9308 32.5056 16.7225 30.7664 12.8906 28.5714C9.05878 26.3765 7.14286 23.9955 7.14286 21.4286L7.14286 14.2857C7.14286 11.7188 9.05878 9.3378 12.8906 7.14285C16.7225 4.94792 21.9308 3.20871 28.5156 1.92522C35.1004 0.641739 42.2619 0 50 0Z" fill-rule="nonzero" fill="#00B5F9"/>
		</g>
	</g>
</svg>
