<svg width="256.000000" height="256.000000" viewBox="0 0 256 256" fill="none" xmlns="http://www.w3.org/2000/svg" xmlns:xlink="http://www.w3.org/1999/xlink">
	<desc>
			Created with Pixso.
	</desc>
	<defs>
		<filter id="filter_3_21_dd" x="-45.019333" y="-3.000000" width="370.038696" height="370.038666" filterUnits="userSpaceOnUse" color-interpolation-filters="sRGB">
			<feFlood flood-opacity="0" result="BackgroundImageFix"/>
			<feColorMatrix in="SourceAlpha" type="matrix" values="0 0 0 0 0 0 0 0 0 0 0 0 0 0 0 0 0 0 127 0" result="hardAlpha"/>
			<feOffset dx="0" dy="4"/>
			<feGaussianBlur stdDeviation="1.33333"/>
			<feComposite in2="hardAlpha" operator="out" k2="-1" k3="1"/>
			<feColorMatrix type="matrix" values="0 0 0 0 0 0 0 0 0 0 0 0 0 0 0 0 0 0 0.25 0"/>
			<feBlend mode="normal" in2="BackgroundImageFix" result="effect_dropShadow_1"/>
			<feBlend mode="normal" in="SourceGraphic" in2="effect_dropShadow_1" result="shape"/>
		</filter>
		<clipPath id="clip3_21">
			<rect id="note" width="256.000000" height="256.000000" transform="translate(140.000000 -3.000000) rotate(45.000000)" fill="white"/>
		</clipPath>
		<filter id="filter_3_43_dd" x="-45.019333" y="-38.000000" width="370.038696" height="370.038666" filterUnits="userSpaceOnUse" color-interpolation-filters="sRGB">
			<feFlood flood-opacity="0" result="BackgroundImageFix"/>
			<feColorMatrix in="SourceAlpha" type="matrix" values="0 0 0 0 0 0 0 0 0 0 0 0 0 0 0 0 0 0 127 0" result="hardAlpha"/>
			<feOffset dx="0" dy="4"/>
			<feGaussianBlur stdDeviation="1.33333"/>
			<feComposite in2="hardAlpha" operator="out" k2="-1" k3="1"/>
			<feColorMatrix type="matrix" values="0 0 0 0 0 0 0 0 0 0 0 0 0 0 0 0 0 0 0.25 0"/>
			<feBlend mode="normal" in2="BackgroundImageFix" result="effect_dropShadow_1"/>
			<feBlend mode="normal" in="SourceGraphic" in2="effect_dropShadow_1" result="shape"/>
		</filter>
		<clipPath id="clip3_43">
			<rect id="note" width="256.000000" height="256.000000" transform="translate(140.000000 -38.000000) rotate(45.000000)" fill="white"/>
		</clipPath>
		<filter id="filter_3_45_dd" x="-45.019333" y="-73.000000" width="370.038696" height="370.038666" filterUnits="userSpaceOnUse" color-interpolation-filters="sRGB">
			<feFlood flood-opacity="0" result="BackgroundImageFix"/>
			<feColorMatrix in="SourceAlpha" type="matrix" values="0 0 0 0 0 0 0 0 0 0 0 0 0 0 0 0 0 0 127 0" result="hardAlpha"/>
			<feOffset dx="0" dy="4"/>
			<feGaussianBlur stdDeviation="1.33333"/>
			<feComposite in2="hardAlpha" operator="out" k2="-1" k3="1"/>
			<feColorMatrix type="matrix" values="0 0 0 0 0 0 0 0 0 0 0 0 0 0 0 0 0 0 0.25 0"/>
			<feBlend mode="normal" in2="BackgroundImageFix" result="effect_dropShadow_1"/>
			<feBlend mode="normal" in="SourceGraphic" in2="effect_dropShadow_1" result="shape"/>
		</filter>
		<clipPath id="clip3_45">
			<rect id="note" width="256.000000" height="256.000000" transform="translate(140.000000 -73.000000) rotate(45.000000)" fill="white"/>
		</clipPath>
		<filter id="filter_3_47_dd" x="-45.019333" y="-108.000000" width="370.038696" height="370.038666" filterUnits="userSpaceOnUse" color-interpolation-filters="sRGB">
			<feFlood flood-opacity="0" result="BackgroundImageFix"/>
			<feColorMatrix in="SourceAlpha" type="matrix" values="0 0 0 0 0 0 0 0 0 0 0 0 0 0 0 0 0 0 127 0" result="hardAlpha"/>
			<feOffset dx="0" dy="4"/>
			<feGaussianBlur stdDeviation="1.33333"/>
			<feComposite in2="hardAlpha" operator="out" k2="-1" k3="1"/>
			<feColorMatrix type="matrix" values="0 0 0 0 0 0 0 0 0 0 0 0 0 0 0 0 0 0 0.25 0"/>
			<feBlend mode="normal" in2="BackgroundImageFix" result="effect_dropShadow_1"/>
			<feBlend mode="normal" in="SourceGraphic" in2="effect_dropShadow_1" result="shape"/>
		</filter>
		<clipPath id="clip3_47">
			<rect id="note" width="256.000000" height="256.000000" transform="translate(140.000000 -108.000000) rotate(45.000000)" fill="white"/>
		</clipPath>
		<clipPath id="clip3_2">
			<rect id="画板 1" width="256.000000" height="256.000000" fill="white"/>
		</clipPath>
	</defs>
	<g clip-path="url(#clip3_2)">
		<g filter="url(#filter_3_21_dd)">
			<g clip-path="url(#clip3_21)">
				<path id="path" d="M205.229 108.866L219.265 122.902C192.713 156.56 249.955 184.85 203.64 217.59C199.309 220.648 182.205 222.211 176 224.668C184.344 220.921 190.508 211.127 195.475 201.846C203.448 186.909 192.554 178.322 190.326 163.261L128.919 224.668C111.807 241.78 105.39 249.258 91.159 251.008C59.1271 254.968 20.7665 232.199 23.4889 201.44C23.9839 195.96 27.8023 186.767 35.1385 182.047C57.6245 167.516 94.1112 179.042 105.248 208.847L205.229 108.866Z" fill-rule="evenodd" fill="#00B5F9"/>
				<path id="path" d="M205.229 108.866L105.248 208.847C94.1112 179.042 57.6245 167.516 35.1385 182.047C27.8023 186.767 23.9839 195.96 23.4889 201.44C20.7665 232.199 59.1271 254.968 91.159 251.008C105.39 249.258 111.807 241.78 128.919 224.668L190.326 163.261C192.554 178.322 203.448 186.909 195.475 201.846C190.508 211.127 184.344 220.921 176 224.668C182.205 222.211 199.309 220.648 203.64 217.59C249.955 184.85 192.713 156.56 219.265 122.902L205.229 108.866Z" stroke="#FFFFFF" stroke-width="5.000000"/>
			</g>
		</g>
		<rect id="note" width="256.000000" height="256.000000" transform="translate(140.000000 -3.000000) rotate(45.000000)" stroke="#FFFFFF" stroke-width="0.000000"/>
		<g filter="url(#filter_3_43_dd)">
			<g clip-path="url(#clip3_43)">
				<path id="path" d="M205.229 73.8658L219.265 87.9019C192.713 121.56 249.955 149.85 203.64 182.59C199.309 185.648 182.205 187.211 176 189.668C184.344 185.921 190.508 176.127 195.475 166.846C203.448 151.909 192.554 143.322 190.326 128.261L128.919 189.668C111.807 206.78 105.39 214.258 91.159 216.008C59.1271 219.968 20.7665 197.199 23.4889 166.44C23.9839 160.96 27.8023 151.767 35.1385 147.047C57.6245 132.516 94.1112 144.042 105.248 173.847L205.229 73.8658Z" fill-rule="evenodd" fill="#00B5F9"/>
				<path id="path" d="M205.229 73.8658L105.248 173.847C94.1112 144.042 57.6245 132.516 35.1385 147.047C27.8023 151.767 23.9839 160.96 23.4889 166.44C20.7665 197.199 59.1271 219.968 91.159 216.008C105.39 214.258 111.807 206.78 128.919 189.668L190.326 128.261C192.554 143.322 203.448 151.909 195.475 166.846C190.508 176.127 184.344 185.921 176 189.668C182.205 187.211 199.309 185.648 203.64 182.59C249.955 149.85 192.713 121.56 219.265 87.9019L205.229 73.8658Z" stroke="#FFFFFF" stroke-width="5.000000"/>
			</g>
		</g>
		<rect id="note" width="256.000000" height="256.000000" transform="translate(140.000000 -38.000000) rotate(45.000000)" stroke="#FFFFFF" stroke-width="0.000000"/>
		<g filter="url(#filter_3_45_dd)">
			<g clip-path="url(#clip3_45)">
				<path id="path" d="M205.229 38.8658L219.265 52.9019C192.713 86.5602 249.955 114.85 203.64 147.59C199.309 150.648 182.205 152.211 176 154.668C184.344 150.921 190.508 141.127 195.475 131.846C203.448 116.909 192.554 108.322 190.326 93.2606L128.919 154.668C111.807 171.78 105.39 179.258 91.159 181.008C59.1271 184.968 20.7665 162.199 23.4889 131.44C23.9839 125.96 27.8023 116.767 35.1385 112.047C57.6245 97.5163 94.1112 109.042 105.248 138.847L205.229 38.8658Z" fill-rule="evenodd" fill="#00B5F9"/>
				<path id="path" d="M205.229 38.8658L105.248 138.847C94.1112 109.042 57.6245 97.5163 35.1385 112.047C27.8023 116.767 23.9839 125.96 23.4889 131.44C20.7665 162.199 59.1271 184.968 91.159 181.008C105.39 179.258 111.807 171.78 128.919 154.668L190.326 93.2606C192.554 108.322 203.448 116.909 195.475 131.846C190.508 141.127 184.344 150.921 176 154.668C182.205 152.211 199.309 150.648 203.64 147.59C249.955 114.85 192.713 86.5602 219.265 52.9019L205.229 38.8658Z" stroke="#FFFFFF" stroke-width="5.000000"/>
			</g>
		</g>
		<rect id="note" width="256.000000" height="256.000000" transform="translate(140.000000 -73.000000) rotate(45.000000)" stroke="#FFFFFF" stroke-width="0.000000"/>
		<g filter="url(#filter_3_47_dd)">
			<g clip-path="url(#clip3_47)">
				<path id="path" d="M205.229 3.86584L219.265 17.9019C192.713 51.5602 249.955 79.8505 203.64 112.59C199.309 115.648 182.205 117.211 176 119.668C184.344 115.921 190.508 106.127 195.475 96.8464C203.448 81.9087 192.554 73.322 190.326 58.2606L128.919 119.668C111.807 136.78 105.39 144.258 91.159 146.008C59.1271 149.968 20.7665 127.199 23.4889 96.4398C23.9839 90.9597 27.8023 81.7673 35.1385 77.0474C57.6245 62.5163 94.1112 74.0422 105.248 103.847L205.229 3.86584Z" fill-rule="evenodd" fill="#00B5F9"/>
				<path id="path" d="M205.229 3.86584L105.248 103.847C94.1112 74.0422 57.6245 62.5163 35.1385 77.0474C27.8023 81.7673 23.9839 90.9597 23.4889 96.4398C20.7665 127.199 59.1271 149.968 91.159 146.008C105.39 144.258 111.807 136.78 128.919 119.668L190.326 58.2606C192.554 73.322 203.448 81.9087 195.475 96.8464C190.508 106.127 184.344 115.921 176 119.668C182.205 117.211 199.309 115.648 203.64 112.59C249.955 79.8505 192.713 51.5602 219.265 17.9019L205.229 3.86584Z" stroke="#FFFFFF" stroke-width="5.000000"/>
			</g>
		</g>
		<rect id="note" width="256.000000" height="256.000000" transform="translate(140.000000 -108.000000) rotate(45.000000)" stroke="#FFFFFF" stroke-width="0.000000"/>
	</g>
</svg>
